<svg width="24" height="25" viewBox="0 0 24 25" fill="none" xmlns="http://www.w3.org/2000/svg">
<path fill-rule="evenodd" clip-rule="evenodd" d="M3.5 10.9508C3.5 6.35092 7.34388 2.63303 11.9934 2.63303C16.6561 2.63303 20.5 6.35092 20.5 10.9508C20.5 13.2687 19.657 15.4207 18.2695 17.2446C16.7388 19.2565 14.8522 21.0095 12.7285 22.3855C12.2425 22.7034 11.8039 22.7274 11.2704 22.3855C9.13474 21.0095 7.24809 19.2565 5.7305 17.2446C4.34198 15.4207 3.5 13.2687 3.5 10.9508ZM9.19423 11.2098C9.19423 12.7507 10.4517 13.9627 11.9934 13.9627C13.5362 13.9627 14.8058 12.7507 14.8058 11.2098C14.8058 9.68082 13.5362 8.40986 11.9934 8.40986C10.4517 8.40986 9.19423 9.68082 9.19423 11.2098Z" fill="#1B1B24"/>
</svg>
