<svg width="24" height="24" viewBox="0 0 24 24" fill="none" xmlns="http://www.w3.org/2000/svg">
<path d="M10.63 13.1H7.18997C7.08146 13.1046 6.97399 13.0771 6.88114 13.0207C6.78828 12.9644 6.71418 12.8818 6.66819 12.7834C6.6222 12.685 6.60638 12.5752 6.62271 12.4678C6.63904 12.3604 6.68681 12.2603 6.75997 12.18L14.56 3.8C14.6329 3.66739 14.7555 3.56919 14.9009 3.52699C15.0462 3.4848 15.2024 3.50207 15.335 3.575C15.4676 3.64794 15.5658 3.77056 15.608 3.9159C15.6502 4.06124 15.6329 4.21739 15.56 4.35L13.23 10.65" stroke="#151E28" stroke-width="1.22" stroke-linecap="round" stroke-linejoin="round"/>
<path d="M13.36 10.9H16.8C16.9085 10.8981 17.0153 10.9278 17.1073 10.9855C17.1992 11.0432 17.2724 11.1264 17.318 11.2249C17.3636 11.3234 17.3795 11.4331 17.3639 11.5405C17.3483 11.648 17.3017 11.7485 17.23 11.83L9.43 20.24C9.39323 20.3057 9.34388 20.3634 9.28478 20.41C9.22569 20.4566 9.15799 20.4911 9.08556 20.5115C9.01313 20.532 8.93739 20.5379 8.86265 20.5291C8.78792 20.5202 8.71566 20.4968 8.65 20.46C8.58433 20.4232 8.52656 20.3739 8.47997 20.3148C8.43338 20.2557 8.39888 20.188 8.37845 20.1156C8.35802 20.0431 8.35206 19.9674 8.3609 19.8927C8.36975 19.8179 8.39323 19.7457 8.43 19.68L10.71 13.38" stroke="#151E28" stroke-width="1.22" stroke-linecap="round" stroke-linejoin="round"/>
</svg>
