<svg width="24" height="24" viewBox="0 0 24 24" fill="none" xmlns="http://www.w3.org/2000/svg">
<path d="M11.97 9.94001C16.5926 9.94001 20.34 8.52075 20.34 6.77001C20.34 5.01926 16.5926 3.60001 11.97 3.60001C7.34735 3.60001 3.59998 5.01926 3.59998 6.77001C3.59998 8.52075 7.34735 9.94001 11.97 9.94001Z" stroke="#151E28" stroke-width="1.2" stroke-linecap="round" stroke-linejoin="round"/>
<path d="M17.1 13.91C15.121 14.0636 13.1319 14.0268 11.16 13.8C9.91998 13.63 6.99998 13.4 7.09998 11.58C7.17998 10.4 8.38998 10 9.59998 9.85001" stroke="#151E28" stroke-width="1.2" stroke-linecap="round" stroke-linejoin="round"/>
<path d="M12.64 13.92C11.64 14.06 10.37 13.87 9.54998 14.6C9.37699 14.7554 9.24448 14.9506 9.16395 15.1687C9.08342 15.3868 9.05729 15.6213 9.08783 15.8518C9.11836 16.0823 9.20464 16.3019 9.33919 16.4915C9.47374 16.6811 9.6525 16.8351 9.85998 16.94C10.69 17.41 11.64 17.14 12.55 17.22C14.55 17.4 14.55 19.71 12.55 19.8" stroke="#151E28" stroke-width="1.2" stroke-linecap="round" stroke-linejoin="round"/>
</svg>
